<?xml version="1.0" encoding="UTF-8" standalone="no"?>
<!-- Created with Inkscape (http://www.inkscape.org/) -->

<svg
   width="30.364075"
   height="18.42905"
   viewBox="0 0 8.033828 4.8760195"
   version="1.1"
   id="svg1"
   xml:space="preserve"
   xmlns="http://www.w3.org/2000/svg"
   xmlns:svg="http://www.w3.org/2000/svg"><defs
     id="defs1"><linearGradient
       id="swatch5"><stop
         style="stop-color:#000000;stop-opacity:1;"
         offset="0"
         id="stop5" /></linearGradient></defs><path
     id="path65-1"
     style="color:#000000;fill:#eab308;fill-opacity:1;fill-rule:evenodd;stroke-width:0.950119;stroke-dasharray:none"
     d="M -7.5827026e-8,-2.420044e-8 1.0133747,4.3470214 0.89090162,4.8420817 H 1.7482136 2.3585122 L 2.2546426,4.3397867 2.4623818,3.5620564 2.6701211,4.3397867 2.5678018,4.8420817 H 4.0359292 L 3.9129393,4.3470214 4.0348957,3.8245727 c 0.042397,0.071778 0.09575,0.1424591 0.146761,0.2046387 0.077697,0.094705 0.1483114,0.1669149 0.1483114,0.1669149 L 4.4932656,4.3651082 4.4281533,4.016809 C 4.5057142,4.1319005 4.5900835,4.2562209 4.6865355,4.3284179 4.9194768,4.5027808 5.2134924,4.669436 5.5304116,4.764567 5.8508426,4.8607529 6.2731041,4.8844248 6.5432697,4.8736043 6.8118074,4.8628503 6.9980648,4.8220604 7.1427163,4.7588826 7.2966736,4.6916317 7.4062661,4.5656128 7.4062661,4.5656128 L 7.5323566,4.4214355 7.3432208,4.4472737 c 0,0 -0.076853,0.010265 -0.171049,0.016536 -0.094197,0.00627 -0.2075633,0.00724 -0.2666504,-0.00568 C 6.6672836,4.4059889 6.4419612,4.2697644 6.2264931,4.1273966 6.0478061,4.0093316 5.8765935,3.8769357 5.75107,3.7145019 5.5866708,3.5017591 5.4610328,3.2528816 5.393469,2.9941325 5.366598,2.8912243 5.3546686,2.7825025 5.3764158,2.688208 5.399192,2.589451 5.4255938,2.513721 5.4694334,2.4380941 5.4985984,2.3877821 5.5361042,2.3362357 5.599658,2.2866821 L 5.7252317,2.1833292 c 0,0 -0.2341213,-0.042457 -0.3431315,-0.020154 -0.1090104,0.022303 -0.2156671,0.070699 -0.2899048,0.144694 -0.087548,0.087262 -0.1624527,0.2229192 -0.1855183,0.3617351 -0.025658,0.1544157 0.020938,0.302286 0.061495,0.4320149 0.021871,0.069958 0.048064,0.1065447 0.085266,0.1746664 L 4.858618,3.2054886 4.908744,3.3465652 c 0,0 0.015596,0.047759 0.039274,0.1038697 0.023678,0.056107 0.05269,0.1201291 0.088883,0.1689819 0.044814,0.060486 0.1161115,0.119857 0.1813842,0.1762166 L 5.003312,3.7697957 5.1257851,3.9093221 c 0,0 0.148595,0.1678995 0.2656169,0.2723348 C 5.3469992,4.1629794 5.2845737,4.1448671 5.2539427,4.1273966 5.1214385,4.0518079 5.0328302,3.9731398 4.9366494,3.872115 4.8873673,3.8203505 4.8560204,3.7631318 4.7991901,3.6809122 L 4.9919432,3.7548095 4.713924,3.0514933 4.8751544,3.1243571 4.8441486,2.9868978 c 0,0 -0.015509,-0.06533 -0.028422,-0.1467611 -0.012912,-0.081431 -0.022682,-0.1832436 -0.016536,-0.2340942 0.0108,-0.089361 0.049412,-0.178595 0.098702,-0.2630331 0.04565,-0.078203 0.1042459,-0.150134 0.1720825,-0.2020548 0.064483,-0.049353 0.1505317,-0.082252 0.2413289,-0.1136882 0.1050277,-0.036362 0.191998,-0.079799 0.2506307,-0.064596 0.033484,0.00868 0.055198,0.03079 0.085266,0.075964 0.030069,0.045173 0.063129,0.1077809 0.1281576,0.1555461 0.043743,0.03213 0.1045695,0.061801 0.1591634,0.087333 0.012303,0.00576 0.011731,0.00641 0.022738,0.011369 -0.020216,0.025706 -0.032489,0.027066 -0.046509,0.067179 -0.018305,0.05237 -0.020086,0.1114858 -0.022221,0.1669149 -0.00214,0.05543 -0.00207,0.1018026 -0.00207,0.1018026 l 0.00413,0.2056722 0.1240235,-0.1627808 c 0,0 0.022813,-0.028778 0.052193,-0.061495 0.029381,-0.032717 0.06891,-0.069057 0.084749,-0.078031 0.04584,-0.025972 0.1037529,-0.039481 0.1581299,-0.038757 0.00307,4.09e-5 0.020908,0.00431 0.03359,0.00723 -0.052949,0.046227 -0.1160816,0.074769 -0.1560629,0.2227255 l -0.037207,0.144694 0.135909,-0.059428 c 0,0 0.058354,-0.025842 0.1291911,-0.050126 0.070838,-0.024285 0.160033,-0.043032 0.1839681,-0.040824 0.079376,0.00732 0.1528617,0.036199 0.2320272,0.085266 0.042227,0.026172 0.096165,0.061265 0.1369425,0.095085 0.036901,0.030606 0.0538,0.057756 0.057878,0.066663 -0.00252,0.0026 -0.004,0.00341 -0.0093,0.00723 -0.017611,0.012697 -0.047257,0.028437 -0.072347,0.035657 l -0.2056722,0.057361 0.1999878,0.075964 c 0.067712,0.025848 0.2277091,0.081954 0.3896402,0.043925 0.081888,-0.019232 0.1707245,-0.054908 0.2356446,-0.1260905 0.067687,-0.049706 0.041858,-0.1922363 0.041858,-0.1922363 l -0.073381,0.00362 c 0,0 -0.025165,-7.329e-4 -0.055811,-0.00413 -0.030649,-0.0034 -0.069356,-0.011289 -0.078031,-0.014986 C 7.3533729,2.8317459 7.3091382,2.7923294 7.2651894,2.7476359 7.2073782,2.6888451 7.0925901,2.5099243 7.0925901,2.5099243 l -0.00362,-0.00568 -0.1431437,-0.1555461 c 0.026436,0.00259 0.043456,0.00209 0.061495,0.00517 0.09339,0.015938 0.1814556,0.031656 0.2557983,0.065112 0.051725,0.023277 0.1378406,0.079769 0.206189,0.1297078 0.068349,0.049939 0.1209229,0.093018 0.1209229,0.093018 l 0.012919,0.011369 -0.063045,0.144694 0.2702678,-0.00775 0.0186,-0.014986 c 0,0 0.03936,-0.030505 0.08165,-0.07183 0.04229,-0.041325 0.09022,-0.088246 0.111621,-0.1565796 0.02537,-0.08098 0.0047,-0.1590009 -0.02015,-0.2201416 -0.03261,-0.080531 -0.09058,-0.1420305 -0.146762,-0.1917196 -0.05496,-0.048617 -0.134519,-0.09417 -0.2025712,-0.1312581 -0.054682,-0.029802 -0.083264,-0.04215 -0.099735,-0.050126 L 7.4140175,1.6712158 7.3432208,1.9647379 C 7.2666901,1.9255465 7.2066776,1.9001199 7.1577024,1.8624186 7.1015339,1.8191803 6.9907824,1.6880775 6.9794187,1.6748332 6.9760539,1.6614755 6.9709756,1.6412859 6.9571979,1.6009359 6.9396593,1.5495713 6.9183887,1.4905538 6.8755491,1.4433227 6.7899232,1.3489253 6.6709441,1.311595 6.5747923,1.2779582 6.4743072,1.2428055 6.3405854,1.2311525 6.3060748,1.227832 L 6.0911009,0.93637698 C 6.090628,0.91169148 6.0875337,0.75351288 6.0611285,0.64492188 6.0232791,0.48927608 5.8993812,0.24029538 5.8993813,0.24029538 l -0.068213,-0.1441772 -0.061495,0.1483113 c 0,0 -0.093924,0.226228 -0.1167888,0.386023 -0.00548,0.038278 2.106e-4,0.048697 0,0.088883 -0.040817,-0.0519685 -0.056457,-0.0744458 -0.096635,-0.1224727 -0.080452,-0.0961659 -0.2557983,-0.3953247 -0.2557983,-0.3953247 l -0.083199,-0.142627 -0.049093,0.1596802 c 0,0 -0.020132,0.073717 -0.038757,0.1632975 -0.018625,0.08958 -0.038393,0.1913305 -0.021704,0.278536 0.02179,0.113864 0.070466,0.2169239 0.1198893,0.3116089 C 5.2833611,1.0788841 5.335863,1.1366651 5.420858,1.2578044 5.3091467,1.1787454 5.1920462,1.0926542 5.0828937,1.0552327 4.9637328,1.0143801 4.8257148,1.0044144 4.689636,1.0149251 L 4.9263141,-2.420044e-8 3.6643756,0.00723468 3.7759967,0.54311928 3.1894692,2.8644246 2.4623818,0.39119058 1.7368447,2.8623576 1.150834,0.54311928 1.2614216,0.00723468 0.92810862,0.00516768 Z" /></svg>
