<svg xmlns="http://www.w3.org/2000/svg" xml:space="preserve" width="30.364075" height="18.42905" viewBox="0 0 8.033828 4.8760195"><path d="M-8e-8-2e-8 1.0133747 4.3470214l-.12247308.4950603H2.3585122l-.1038696-.502295.2077392-.7777303.2077393.7777303-.1023193.502295h1.4681274l-.1229899-.4950603.1219564-.5224487c.042397.071778.09575.1424591.146761.2046387.077697.094705.1483114.1669149.1483114.1669149l.1632975.1689819-.0651123-.3482992c.0775609.1150915.1619302.2394119.2583822.3116089.2329413.1743629.5269569.3410181.8438761.4361491.320431.0961859.7426925.1198578 1.0128581.1090373.2685377-.010754.4547951-.0515439.5994466-.1147217.1539573-.0672509.2635498-.1932698.2635498-.1932698l.1260905-.1441773-.1891358.0258382s-.076853.010265-.171049.016536c-.094197.00627-.2075633.00724-.2666504-.00568-.2382378-.0521408-.4635602-.1883653-.6790283-.3307331-.178687-.118065-.3498996-.2504609-.4754231-.4128947-.1643992-.2127428-.2900372-.4616203-.357601-.7203694-.026871-.1029082-.0388004-.21163-.0170532-.3059245.0227762-.098757.049178-.174487.0930176-.2501139.029165-.050312.0666708-.1018584.1302246-.151412l.1255737-.1033529s-.2341213-.042457-.3431315-.020154c-.1090104.022303-.2156671.070699-.2899048.144694-.087548.087262-.1624527.2229192-.1855183.3617351-.025658.1544157.020938.302286.061495.4320149.021871.069958.048064.1065447.085266.1746664l-.1948201-.070797.050126.1410766s.015596.047759.039274.1038697c.023678.056107.05269.1201291.088883.1689819.044814.060486.1161115.119857.1813842.1762166l-.2149732-.0258377.1224731.1395264s.148595.1678995.2656169.2723348c-.0444028-.0186775-.1068283-.0367898-.1374593-.0542603-.1325042-.0755887-.2211125-.1542568-.3172933-.2552816-.0492821-.0517645-.080629-.1089832-.1374593-.1912028l.1927531.0738973-.2780192-.7033162.1612304.0728638-.0310058-.1374593s-.015509-.06533-.028422-.1467611c-.012912-.081431-.022682-.1832436-.016536-.2340942.0108-.089361.049412-.178595.098702-.2630331.04565-.078203.1042459-.150134.1720825-.2020548.064483-.049353.1505317-.082252.2413289-.1136882.1050277-.036362.191998-.079799.2506307-.064596.033484.00868.055198.03079.085266.075964.030069.045173.063129.1077809.1281576.1555461.043743.03213.1045695.061801.1591634.087333.012303.00576.011731.00641.022738.011369-.020216.025706-.032489.027066-.046509.067179-.018305.05237-.020086.1114858-.022221.1669149-.00214.05543-.00207.1018026-.00207.1018026l.00413.2056722.1240235-.1627808s.022813-.028778.052193-.061495c.029381-.032717.06891-.069057.084749-.078031.04584-.025972.1037529-.039481.1581299-.038757.00307.0000409.020908.00431.03359.00723-.052949.046227-.1160816.074769-.1560629.2227255l-.037207.144694.135909-.059428s.058354-.025842.1291911-.050126c.070838-.024285.160033-.043032.1839681-.040824.079376.00732.1528617.036199.2320272.085266.042227.026172.096165.061265.1369425.095085.036901.030606.0538.057756.057878.066663-.00252.0026-.004.00341-.0093.00723-.017611.012697-.047257.028437-.072347.035657l-.2056722.057361.1999878.075964c.067712.025848.2277091.081954.3896402.043925.081888-.019232.1707245-.054908.2356446-.1260905.067687-.049706.041858-.1922363.041858-.1922363l-.073381.00362s-.025165-.0007329-.055811-.00413c-.030649-.0034-.069356-.011289-.078031-.014986-.0451366-.0192412-.0893713-.0586577-.1333201-.1033512-.0578112-.0587908-.1725993-.2377116-.1725993-.2377116l-.00362-.00568-.1431437-.1555461c.026436.00259.043456.00209.061495.00517.09339.015938.1814556.031656.2557983.065112.051725.023277.1378406.079769.206189.1297078.068349.049939.1209229.093018.1209229.093018l.012919.011369-.063045.144694.2702678-.00775.0186-.014986s.03936-.030505.08165-.07183.09022-.088246.111621-.1565796c.02537-.08098.0047-.1590009-.02015-.2201416-.03261-.080531-.09058-.1420305-.146762-.1917196-.05496-.048617-.134519-.09417-.2025712-.1312581-.054682-.029802-.083264-.04215-.099735-.050126l-.1390087-.2821623-.0707967.2935221c-.0765307-.0391914-.1365432-.064618-.1855184-.1023193-.0561685-.0432383-.16692-.1743411-.1782837-.1875854-.0033648-.0133577-.0084431-.0335473-.0222208-.0738973-.0175386-.0513646-.0388092-.1103821-.0816488-.1576132-.0856259-.0943974-.204605-.1317277-.3007568-.1653645-.1004851-.0351527-.2342069-.0468057-.2687175-.0501262L6.0911009.93637698c-.0004729-.0246855-.0035672-.1828641-.0299724-.2914551-.0378494-.1556458-.1617473-.4046265-.1617472-.4046265l-.068213-.1441772-.061495.1483113s-.093924.226228-.1167888.386023c-.00548.038278.0002106.048697 0 .088883-.040817-.0519685-.056457-.0744458-.096635-.1224727-.080452-.0961659-.2557983-.3953247-.2557983-.3953247l-.083199-.142627-.049093.1596802s-.020132.073717-.038757.1632975c-.018625.08958-.038393.1913305-.021704.278536.02179.113864.070466.2169239.1198893.3116089.0557736.10685042.1082755.16463142.1932705.28577072-.1117113-.079059-.2288118-.1651502-.3379643-.2025717-.1191609-.0408526-.2571789-.0508183-.3932577-.0403076L4.9263141-2e-8l-1.2619385.0072347.1116211.5358846-.5865275 2.32130532L2.4623818.39119058 1.7368447 2.8623576 1.150834.54311928l.1105876-.5358846-.33331298-.002067Z" style="color:#000;fill:#f59e0b;fill-opacity:1;fill-rule:evenodd;stroke-width:.950119;stroke-dasharray:none"/></svg>