<?xml version="1.0" encoding="UTF-8" standalone="no"?>
<!-- Created with Inkscape (http://www.inkscape.org/) -->

<svg
   width="46.270077"
   height="46.270077"
   viewBox="0 0 12.242291 12.242291"
   version="1.1"
   id="svg1"
   xml:space="preserve"
   xmlns:xlink="http://www.w3.org/1999/xlink"
   xmlns="http://www.w3.org/2000/svg"
   xmlns:svg="http://www.w3.org/2000/svg"><defs
     id="defs1"><linearGradient
       id="linearGradient123"><stop
         style="stop-color:#b84a00;stop-opacity:1;"
         offset="0"
         id="stop122" /><stop
         style="stop-color:#cd8d00;stop-opacity:1;"
         offset="0.50275123"
         id="stop123" /></linearGradient><linearGradient
       id="linearGradient143"><stop
         style="stop-color:#cc8c00;stop-opacity:1;"
         offset="0"
         id="stop138" /><stop
         style="stop-color:#ffbd33;stop-opacity:1;"
         offset="0.10288285"
         id="stop139" /><stop
         style="stop-color:#ffb514;stop-opacity:1;"
         offset="0.19688547"
         id="stop140" /><stop
         style="stop-color:#ffdb99;stop-opacity:1;"
         offset="0.35642985"
         id="stop141" /><stop
         style="stop-color:#ffb514;stop-opacity:1;"
         offset="0.60323"
         id="stop142" /><stop
         style="stop-color:#cc8c00;stop-opacity:1;"
         offset="0.74730736"
         id="stop144" /><stop
         style="stop-color:#cc5200;stop-opacity:1;"
         offset="0.89131552"
         id="stop143" /></linearGradient><linearGradient
       id="linearGradient118"><stop
         style="stop-color:#cc5200;stop-opacity:1;"
         offset="0"
         id="stop118" /><stop
         style="stop-color:#e59d00;stop-opacity:1;"
         offset="0.23489474"
         id="stop120" /><stop
         style="stop-color:#e59d00;stop-opacity:1;"
         offset="0.38972256"
         id="stop127" /><stop
         style="stop-color:#cc8c00;stop-opacity:1;"
         offset="0.44433388"
         id="stop145" /><stop
         style="stop-color:#cc5200;stop-opacity:1;"
         offset="0.65766972"
         id="stop121" /></linearGradient><linearGradient
       id="linearGradient82"><stop
         style="stop-color:#cc8c00;stop-opacity:1;"
         offset="0"
         id="stop83" /><stop
         style="stop-color:#ffbd33;stop-opacity:1;"
         offset="0.14880092"
         id="stop85" /><stop
         style="stop-color:#ffb514;stop-opacity:1;"
         offset="1"
         id="stop84" /></linearGradient><linearGradient
       id="linearGradient80"><stop
         style="stop-color:#ffb514;stop-opacity:1;"
         offset="0"
         id="stop80" /><stop
         style="stop-color:#ffbd33;stop-opacity:1;"
         offset="0.73000002"
         id="stop82" /><stop
         style="stop-color:#cc8c00;stop-opacity:1;"
         offset="1"
         id="stop81" /></linearGradient><linearGradient
       id="linearGradient75"><stop
         style="stop-color:#ffb514;stop-opacity:1;"
         offset="0.60430819"
         id="stop75" /><stop
         style="stop-color:#ffdb99;stop-opacity:1;"
         offset="1"
         id="stop79" /></linearGradient><linearGradient
       id="linearGradient73"><stop
         style="stop-color:#ffb514;stop-opacity:1;"
         offset="0"
         id="stop73" /><stop
         style="stop-color:#ffdb99;stop-opacity:1;"
         offset="1"
         id="stop74" /></linearGradient><linearGradient
       id="linearGradient70"><stop
         style="stop-color:#cc5200;stop-opacity:1;"
         offset="0.20999999"
         id="stop71" /><stop
         style="stop-color:#cc8c00;stop-opacity:1;"
         offset="0.83832103"
         id="stop72" /></linearGradient><linearGradient
       id="linearGradient67"><stop
         style="stop-color:#cc5200;stop-opacity:1;"
         offset="0"
         id="stop67" /><stop
         style="stop-color:#e59d00;stop-opacity:1;"
         offset="0.40054584"
         id="stop69" /><stop
         style="stop-color:#e59d00;stop-opacity:1;"
         offset="0.64922738"
         id="stop70" /><stop
         style="stop-color:#cc5200;stop-opacity:1;"
         offset="1"
         id="stop68" /></linearGradient><linearGradient
       id="linearGradient64"><stop
         style="stop-color:#cc5200;stop-opacity:1;"
         offset="0"
         id="stop65" /><stop
         style="stop-color:#e59d00;stop-opacity:1;"
         offset="0.35559583"
         id="stop66" /></linearGradient><linearGradient
       id="linearGradient60"><stop
         style="stop-color:#cc5200;stop-opacity:1;"
         offset="0"
         id="stop61" /><stop
         style="stop-color:#e59d00;stop-opacity:1;"
         offset="0.40187758"
         id="stop63" /><stop
         style="stop-color:#e59d00;stop-opacity:1;"
         offset="0.65108389"
         id="stop64" /><stop
         style="stop-color:#cc5200;stop-opacity:1;"
         offset="1"
         id="stop62" /></linearGradient><linearGradient
       id="linearGradient55"><stop
         style="stop-color:#cc8c00;stop-opacity:1;"
         offset="0"
         id="stop56" /><stop
         style="stop-color:#ffbd33;stop-opacity:1;"
         offset="0.20142519"
         id="stop58" /><stop
         style="stop-color:#ffb514;stop-opacity:1;"
         offset="0.5"
         id="stop59" /><stop
         style="stop-color:#ffbd33;stop-opacity:1;"
         offset="0.8024298"
         id="stop60" /><stop
         style="stop-color:#cc8c00;stop-opacity:1;"
         offset="1"
         id="stop57" /></linearGradient><linearGradient
       id="linearGradient52"><stop
         style="stop-color:#ffb514;stop-opacity:1;"
         offset="0.45085806"
         id="stop53" /><stop
         style="stop-color:#ffdb99;stop-opacity:1;"
         offset="1"
         id="stop55" /></linearGradient><linearGradient
       id="swatch5"><stop
         style="stop-color:#000000;stop-opacity:1;"
         offset="0"
         id="stop5" /></linearGradient><linearGradient
       xlink:href="#linearGradient52"
       id="linearGradient53"
       x1="9.276001"
       y1="10.756332"
       x2="9.8605404"
       y2="11.203431"
       gradientUnits="userSpaceOnUse"
       gradientTransform="matrix(0.95,0,0,0.95,-6.6185489,-6.3210274)" /><linearGradient
       xlink:href="#linearGradient55"
       id="linearGradient57"
       x1="9.276001"
       y1="10.756332"
       x2="10.4306"
       y2="15.531166"
       gradientUnits="userSpaceOnUse"
       gradientTransform="matrix(0.95,0,0,0.95,-6.6185489,-6.3210274)" /><linearGradient
       xlink:href="#linearGradient60"
       id="linearGradient62"
       x1="10.139047"
       y1="10.983381"
       x2="11.003872"
       y2="15.359511"
       gradientUnits="userSpaceOnUse"
       gradientTransform="matrix(0.95,0,0,0.95,-6.6185489,-6.3210274)" /><linearGradient
       xlink:href="#linearGradient64"
       id="linearGradient66"
       x1="11.774567"
       y1="12.293429"
       x2="12.724204"
       y2="15.35951"
       gradientUnits="userSpaceOnUse"
       gradientTransform="matrix(0.95,0,0,0.95,-6.618528,-6.3210274)" /><linearGradient
       xlink:href="#linearGradient67"
       id="linearGradient68"
       x1="14.273102"
       y1="10.756332"
       x2="13.118519"
       y2="15.531165"
       gradientUnits="userSpaceOnUse"
       gradientTransform="matrix(0.95,0,0,0.95,-6.6185489,-6.3210274)" /><linearGradient
       xlink:href="#linearGradient70"
       id="linearGradient72"
       x1="11.774556"
       y1="13.684564"
       x2="11.288307"
       y2="15.531166"
       gradientUnits="userSpaceOnUse"
       gradientTransform="matrix(0.95,0,0,0.95,-6.6185489,-6.3210274)" /><linearGradient
       xlink:href="#linearGradient73"
       id="linearGradient74"
       x1="13.131632"
       y1="10.763332"
       x2="13.688643"
       y2="11.203431"
       gradientUnits="userSpaceOnUse"
       gradientTransform="matrix(0.95,0,0,0.95,-6.6185489,-6.3210274)" /><linearGradient
       xlink:href="#linearGradient75"
       id="linearGradient79"
       x1="11.774567"
       y1="12.293429"
       x2="10.645958"
       y2="15.702822"
       gradientUnits="userSpaceOnUse"
       gradientTransform="matrix(0.95,0,0,0.95,-6.6185489,-6.3210274)" /><linearGradient
       xlink:href="#linearGradient80"
       id="linearGradient81"
       x1="11.774568"
       y1="13.684564"
       x2="12.260817"
       y2="15.531166"
       gradientUnits="userSpaceOnUse"
       gradientTransform="matrix(0.95,0,0,0.95,-6.6185489,-6.3210274)" /><linearGradient
       xlink:href="#linearGradient82"
       id="linearGradient84"
       x1="13.410137"
       y1="10.983381"
       x2="12.54523"
       y2="15.359511"
       gradientUnits="userSpaceOnUse"
       gradientTransform="matrix(0.95,0,0,0.95,-6.6186273,-6.3210274)" /><linearGradient
       xlink:href="#linearGradient143"
       id="linearGradient103"
       x1="5.7061076"
       y1="3.8236358"
       x2="9.2467718"
       y2="8.3385382"
       gradientUnits="userSpaceOnUse"
       gradientTransform="matrix(0.95,0,0,0.95,0.20940278,0.43159324)" /><linearGradient
       xlink:href="#linearGradient118"
       id="linearGradient119"
       x1="7.6659231"
       y1="5.923398"
       x2="9.7337151"
       y2="8.4982109"
       gradientUnits="userSpaceOnUse"
       gradientTransform="matrix(0.95,0,0,0.95,0.20940278,0.43159324)" /><linearGradient
       xlink:href="#linearGradient123"
       id="linearGradient115"
       x1="11.003399"
       y1="1.2388868"
       x2="6.1211443"
       y2="6.1211586"
       gradientUnits="userSpaceOnUse" /></defs><path
     style="display:none;fill:url(#linearGradient115);fill-opacity:1;fill-rule:nonzero;stroke:none;stroke-width:0.0748703;stroke-dasharray:none;stroke-opacity:0.8"
     d="M 6.1211444,1.236486 H 11.005817 V 6.1211585 H 6.1211444 Z"
     id="path17-9-8-1" /><path
     id="path65"
     style="color:#000000;opacity:1;fill:#660808;fill-opacity:1;fill-rule:evenodd;stroke-width:0.95;-inkscape-stroke:none"
     d="M 2.1041644,3.8254768 3.1174354,8.1726274 2.9951951,8.6679726 H 3.8523516 4.4625727 L 4.3589875,8.165264 4.566649,7.3876367 4.7743114,8.165264 4.6721987,8.6679726 H 6.1400675 L 6.017336,8.1726274 7.0306079,3.8254768 5.7689272,3.8327918 5.8803679,4.3688835 5.2937106,6.6899824 4.566649,4.2166963 3.8410608,6.6880187 3.2548947,4.3688835 3.3658442,3.8327918 3.0325054,3.8307968 Z" /><path
     id="path65-1"
     style="color:#000000;fill:#660808;fill-opacity:1;fill-rule:evenodd;stroke-width:0.95;-inkscape-stroke:none"
     d="M 2.3304611,4.0517344 3.343732,8.398885 3.2214917,8.8942302 H 4.0786482 4.6888693 L 4.5852842,8.3915216 4.7929456,7.6138943 5.000608,8.3915216 4.8984954,8.8942302 H 6.3663641 L 6.2436327,8.398885 7.2569046,4.0517344 5.9952238,4.0590494 6.1066645,4.5951411 5.5200072,6.91624 4.7929456,4.4429539 4.0673575,6.9142763 3.4811913,4.5951411 3.5921409,4.0590494 3.258802,4.0570544 Z" /><path
     style="fill:#8a3d00;fill-opacity:1;fill-rule:nonzero;stroke-width:0.1425"
     d="M 3.085931,8.5966535 3.4951112,8.270508 H 3.8351295 L 4.375556,8.5966535"
     id="path49" /><path
     style="fill:url(#linearGradient72);fill-opacity:1;fill-rule:nonzero;stroke-width:0.1425"
     d="M 3.8351295,8.270508 4.5672746,6.2467943 4.567285,7.1118225 4.286161,8.163786 4.375556,8.5966535 Z"
     id="path51" /><path
     style="fill:url(#linearGradient79);fill-opacity:1;fill-rule:nonzero;stroke-width:0.1425"
     d="M 3.8351295,8.270508 V 6.959509 L 4.567304,4.468666 4.5672746,6.2467943 Z"
     id="path52" /><path
     style="display:inline;fill:url(#linearGradient62);fill-opacity:1;fill-rule:nonzero;stroke-width:0.1425"
     d="M 3.2781255,3.904138 2.7489646,4.322232 3.4951112,8.270508 H 3.8351295 V 6.959509 L 3.182223,4.3707685 Z"
     id="path50" /><path
     style="fill:url(#linearGradient57);fill-opacity:1;fill-rule:nonzero;stroke-width:0.1425"
     d="M 2.1936523,3.897488 3.190526,8.173058 3.085931,8.5966535 3.4951112,8.270508 v 0 L 2.7489646,4.322232 Z"
     id="path48" /><path
     style="fill:url(#linearGradient53);fill-opacity:1;fill-rule:nonzero;stroke-width:0.1425"
     d="M 2.1936523,3.897488 2.7489647,4.322232 3.2781255,3.904138 Z M 3.8699071,3.5402452"
     id="path46" /><path
     style="display:inline;fill:#8a3d00;fill-opacity:1;fill-rule:nonzero;stroke-width:0.1425"
     d="M 6.0486343,8.5966525 5.6394541,8.2705071 H 5.2994358 L 4.7590093,8.5966525"
     id="path49-7" /><path
     style="fill:url(#linearGradient81);fill-opacity:1;fill-rule:nonzero;stroke-width:0.1425"
     d="M 5.2994405,8.270508 4.5672955,6.2467943 4.567285,7.1118225 4.848409,8.163786 4.759014,8.5966535 Z"
     id="path51-9" /><path
     style="fill:url(#linearGradient66);fill-rule:nonzero;stroke-width:0.142518;stroke-dasharray:none"
     d="m 5.2994405,8.270508 0.3400345,-9e-7 L 5.2994405,6.959509 4.567266,4.468666 l 2.95e-5,1.7781283 z"
     id="path52-9" /><path
     style="fill:url(#linearGradient84);fill-opacity:1;fill-rule:nonzero;stroke-width:0.1425"
     d="M 5.8564236,3.904138 6.3855841,4.322232 5.6394379,8.270508 5.2994196,6.959509 5.9523261,4.3707685 Z"
     id="path50-2" /><path
     style="fill:url(#linearGradient68);fill-opacity:1;fill-rule:nonzero;stroke-width:0.1425"
     d="M 6.9409132,3.897488 5.9440393,8.173058 6.0486343,8.5966525 5.6394541,8.2705071 v 0 L 6.3856012,4.322232 Z"
     id="path48-2" /><path
     style="fill:url(#linearGradient74);fill-opacity:1;fill-rule:nonzero;stroke-width:0.1425"
     d="M 6.940937,3.897488 6.3856249,4.322232 5.8564635,3.904138 Z M 5.264681,3.5402452"
     id="path46-2" /><path
     id="path69"
     style="color:#000000;fill:#660808;fill-opacity:1;stroke-width:0.950114;stroke-linecap:round;stroke-dasharray:none"
     d="m 7.32139,3.8846468 -0.048602,0.159551 c 0,0 -0.020158,0.073898 -0.038783,0.1634784 -0.018625,0.08958 -0.03878,0.1911496 -0.022091,0.2783551 0.02179,0.1138642 0.070853,0.217053 0.1202768,0.311738 0.055773,0.1068505 0.107939,0.1645798 0.192934,0.2857191 C 7.4134138,5.0044294 7.2965202,4.9186483 7.1873676,4.8812268 6.9952728,4.81537 6.7544607,4.8280724 6.5511273,4.8812268 6.4517124,4.907215 6.339851,4.9713313 6.2467528,5.0294865 6.1536548,5.0876416 6.0818016,5.1409267 6.0818016,5.1409267 L 5.9055591,5.2705312 h 0.3544487 c -0.00742,0.00314 -0.013717,0.00277 -0.020619,0.00589 C 6.1393602,5.3216292 6.0294422,5.3706702 5.938942,5.4561003 5.868836,5.5222803 5.800738,5.6256173 5.746008,5.7143274 5.691278,5.8030374 5.65126,5.8773149 5.65126,5.8773149 L 5.5565107,6.055522 5.9757616,5.8773159 C 5.9042095,5.9464503 5.8262045,6.0157992 5.7793911,6.0815411 5.7215133,6.1628203 5.6707529,6.280405 5.6306405,6.3819879 5.5905277,6.4835709 5.562402,6.5675581 5.562402,6.567558 L 5.5010358,6.7570554 5.8314291,6.5454663 c -0.012274,0.027728 -0.023337,0.049104 -0.046638,0.1114402 -0.034222,0.091551 -0.070186,0.201314 -0.074129,0.2950466 -0.00511,0.1214525 0.030905,0.2728271 0.066766,0.4005957 0.035861,0.1277687 0.074129,0.2282806 0.074129,0.2282806 l 0.092785,0.2597 0.044675,-0.272955 c 0.013673,-0.08681 0.031392,-0.2287441 0.046324,-0.311242 0.00428,0.071567 0.026982,0.2213869 0.048424,0.2817864 0.038428,0.1082209 0.1245652,0.2224302 0.2022615,0.3171383 0.077697,0.094708 0.1482597,0.1669148 0.1482597,0.1669149 L 6.5977649,8.1910506 6.5324718,7.842493 C 6.6100325,7.9575844 6.6942467,8.0820342 6.7906989,8.1542312 7.0236405,8.328594 7.3176814,8.4950424 7.6346009,8.5901735 7.9550322,8.6863588 8.3777066,8.7104709 8.6478723,8.69965 8.9164104,8.6888941 9.1026415,8.6479546 9.2472931,8.5847733 9.4012506,8.5175267 9.5104295,8.3913484 9.5104295,8.3913484 L 9.6365975,8.2470161 9.447591,8.2730352 c 0,0 -0.076646,0.010418 -0.1708423,0.016691 -0.094197,0.00627 -0.2079767,0.00704 -0.2670638,-0.00589 C 8.7714464,8.2317015 8.5462024,8.0958107 8.3307341,7.9534424 8.1520469,7.835377 7.9810413,7.7025173 7.8555176,7.5400826 7.6911183,7.3273405 7.5651963,7.0786433 7.4976325,6.8198939 7.4707614,6.7169857 7.4591938,6.6083417 7.480941,6.514047 7.5037173,6.41529 7.5298449,6.3396214 7.5736846,6.2639944 7.6028496,6.2136824 7.6403499,6.1622777 7.7039038,6.1127241 L 7.8294986,6.009375 c 0,0 -0.2341471,-0.042926 -0.3431574,-0.020623 -0.1090103,0.022303 -0.2154087,0.070828 -0.2896464,0.1448232 -0.087548,0.087262 -0.1625043,0.2229965 -0.18557,0.3618125 -0.025658,0.1544159 0.020809,0.3022858 0.061366,0.432015 0.021871,0.069958 0.048219,0.1066481 0.085421,0.1747697 L 6.9630145,7.0314795 7.013089,7.1723752 c 0,0 0.015596,0.047966 0.039274,0.1040764 0.023678,0.056111 0.052664,0.1200255 0.088857,0.1688785 0.044814,0.060488 0.1163699,0.1198824 0.1816427,0.1762425 L 7.1078372,7.5955531 7.2300779,7.734976 c 0,0 0.148569,0.1680286 0.265591,0.272464 C 7.4512658,7.9887611 7.3888405,7.9709167 7.3582094,7.9534424 7.2257051,7.8778515 7.1372521,7.7986954 7.0410712,7.6976698 6.9917891,7.6459053 6.9604423,7.5889191 6.9036119,7.5066996 L 7.0965459,7.580829 6.8181908,6.877332 6.9797055,6.9499889 6.9482862,6.8125296 c 0,0 -0.01507,-0.065356 -0.027983,-0.1467868 -0.012913,-0.081431 -0.022837,-0.1828297 -0.016691,-0.2336805 0.0108,-0.089361 0.049386,-0.178698 0.098676,-0.2631363 0.04565,-0.078203 0.1044784,-0.1503406 0.1723151,-0.2022615 0.064483,-0.049354 0.1502475,-0.081968 0.2410448,-0.113404 0.1050277,-0.036362 0.1922304,-0.080006 0.2508631,-0.064802 0.033484,0.00868 0.054862,0.03092 0.08493,0.076094 0.030069,0.045173 0.063103,0.1078583 0.1281318,0.1556236 0.043743,0.03213 0.104957,0.061853 0.1595509,0.087385 0.012303,0.00576 0.011576,0.00633 0.022583,0.011292 -0.020216,0.025706 -0.032618,0.026653 -0.046638,0.066766 -0.018305,0.05237 -0.019956,0.1114856 -0.022091,0.1669149 -0.00214,0.05543 -0.00197,0.1021126 -0.00197,0.1021126 l 0.00392,0.205698 0.1242043,-0.1629874 c 0,0 0.022657,-0.028649 0.052038,-0.061366 0.029381,-0.032717 0.069091,-0.069084 0.08493,-0.078058 0.04584,-0.025972 0.1037013,-0.039507 0.1580782,-0.038783 0.00307,4.09e-5 0.020701,0.00444 0.033383,0.00736 -0.052949,0.046227 -0.1161332,0.074433 -0.1561145,0.2223895 L 8.2546406,6.693726 8.3901361,6.6343239 c 0,0 0.058767,-0.025791 0.1296045,-0.050075 0.070838,-0.024285 0.1596713,-0.042954 0.1836064,-0.040747 0.079376,0.00732 0.1530424,0.036354 0.2322081,0.085421 0.042227,0.026173 0.096191,0.060928 0.1369683,0.094748 0.036901,0.030606 0.053851,0.057859 0.057929,0.066766 -0.00252,0.0026 -0.00403,0.00354 -0.00933,0.00736 -0.017611,0.012697 -0.047567,0.028127 -0.072657,0.035347 l -0.205698,0.057438 0.2002979,0.076094 c 0.067712,0.025848 0.227864,0.082213 0.3897953,0.044183 0.081888,-0.019232 0.1707236,-0.054986 0.2356445,-0.126168 0.067684,-0.049706 0.041583,-0.1925045 0.041583,-0.1925045 l -0.07349,0.0035 c 0,0 -0.024824,-5.188e-4 -0.055474,-0.00392 -0.030649,-0.0034 -0.069381,-0.011031 -0.078056,-0.014728 -0.04515,-0.01924 -0.089587,-0.058892 -0.1335356,-0.103586 C 9.3117225,6.5146584 9.1972187,6.3358408 9.1972187,6.3358408 l -0.00392,-0.00589 -0.1428596,-0.1556236 c 0.026436,0.00259 0.043327,0.00232 0.061366,0.0054 0.09339,0.015938 0.1814297,0.031838 0.2557725,0.065294 0.051725,0.023277 0.1378404,0.079666 0.2061889,0.1296045 0.068349,0.049939 0.1207678,0.092785 0.1207678,0.092785 l 0.012764,0.011291 -0.062839,0.1448232 0.2704995,-0.00786 0.018658,-0.014728 c 0,0 0.039197,-0.030841 0.081491,-0.072166 0.04229,-0.041325 0.09004,-0.087781 0.11144,-0.1561145 0.02537,-0.08098 0.0047,-0.1592851 -0.02013,-0.2204258 C 10.073801,6.0716988 10.015803,6.0104573 9.9596269,5.9607682 9.9046694,5.912151 9.8254195,5.8662878 9.7573667,5.8292 9.7026828,5.7993985 9.6736869,5.7871008 9.6572177,5.7791255 L 9.5182843,5.4968481 9.447591,5.790422 C 9.3710602,5.7512305 9.3109961,5.7260106 9.2620209,5.6883093 9.2058523,5.6450709 9.0951784,5.5140199 9.0838147,5.5007755 9.0804499,5.4874179 9.0755007,5.4669958 9.061723,5.4266457 9.0441844,5.3752812 9.022578,5.3162895 8.9797384,5.2690585 8.8941124,5.1746609 8.7754435,5.1372533 8.6792916,5.1036163 8.5788064,5.0684637 8.4447747,5.0568624 8.4102641,5.0535418 L 8.1952385,4.7624227 C 8.1947656,4.7377372 8.1916972,4.5794038 8.165292,4.4708126 8.1274425,4.3151668 8.0037772,4.0662895 8.0037773,4.0662895 L 7.9355386,3.9219572 7.8741728,4.0702169 c 0,0 -0.093976,0.2260728 -0.1168404,0.3858679 -0.00548,0.038278 2.106e-4,0.04867 0,0.088857 C 7.7165156,4.4929724 7.7007983,4.4707294 7.66062,4.4227018 7.5801677,4.3265358 7.4048475,4.0275063 7.4048475,4.0275063 Z" /><path
     id="path69-6"
     style="color:#000000;fill:#660808;fill-opacity:1;stroke-width:0.950114;stroke-linecap:round;stroke-dasharray:none"
     d="m 7.5476155,4.1108027 -0.048602,0.159551 c 0,0 -0.020158,0.073898 -0.038783,0.1634783 -0.018625,0.08958 -0.03878,0.1911496 -0.022091,0.2783552 0.02179,0.1138641 0.070853,0.2170529 0.1202768,0.311738 0.055773,0.1068505 0.107939,0.1645797 0.192934,0.2857191 -0.111711,-0.079059 -0.2286045,-0.1648401 -0.3377571,-0.2022616 -0.1920948,-0.065857 -0.4329069,-0.053154 -0.6362403,0 -0.099415,0.025988 -0.2112763,0.090105 -0.3043745,0.1482597 -0.093098,0.058155 -0.1649512,0.1114402 -0.1649512,0.1114402 L 6.1317846,5.4966871 h 0.3544487 c -0.00742,0.00314 -0.013717,0.00277 -0.020619,0.00589 -0.1000286,0.045208 -0.2099467,0.094249 -0.3004468,0.179679 -0.070106,0.06618 -0.138204,0.1695171 -0.192934,0.2582271 -0.05473,0.08871 -0.094748,0.1629875 -0.094748,0.1629875 L 5.7827362,6.2816779 6.2019871,6.1034718 C 6.130435,6.1726061 6.05243,6.2419551 6.0056166,6.307697 5.9477388,6.3889761 5.8969784,6.5065609 5.856866,6.6081438 5.816753,6.7097268 5.788627,6.7937139 5.788627,6.7937138 L 5.7272613,6.9832113 6.0576546,6.7716222 c -0.012274,0.027728 -0.023337,0.049104 -0.046638,0.1114402 -0.034222,0.091551 -0.070186,0.2013139 -0.074129,0.2950465 -0.00511,0.1214526 0.030905,0.2728269 0.066766,0.4005962 0.035861,0.1277684 0.074129,0.2282803 0.074129,0.2282803 L 6.1705678,8.066685 6.2152425,7.79373 c 0.013673,-0.086811 0.031392,-0.2287438 0.046324,-0.3112418 0.00428,0.071563 0.026982,0.221387 0.048424,0.2817861 0.038428,0.1082212 0.1245653,0.2224302 0.2022616,0.3171385 0.077697,0.094705 0.1482597,0.166915 0.1482597,0.166915 L 6.8239904,8.4172065 6.7586969,8.0686486 C 6.8362579,8.1837402 6.9204719,8.3081902 7.016924,8.3803873 7.2498656,8.5547503 7.5439065,8.7211979 7.860826,8.816329 8.1812573,8.912515 8.6039317,8.9366266 8.8740975,8.9258061 9.1426355,8.9150521 9.3288666,8.8741071 9.4735182,8.8109292 9.6274757,8.7436782 9.7366546,8.6175045 9.7366546,8.6175045 l 0.1261673,-0.1443326 -0.1890058,0.02602 c 0,0 -0.076646,0.010421 -0.1708423,0.016692 -0.094197,0.00627 -0.2079767,0.00703 -0.2670638,-0.00589 C 8.9976719,8.457857 8.7724279,8.3219661 8.5569596,8.1795982 8.3782724,8.0615331 8.2072668,7.9286728 8.0817431,7.7662389 7.9173438,7.5534959 7.7914218,7.3047992 7.723858,7.0460498 7.6969869,6.9431415 7.6854193,6.8344975 7.7071665,6.7402029 7.7299427,6.6414458 7.7560706,6.5657773 7.7999102,6.4901503 7.8290752,6.4398383 7.8665755,6.3884336 7.9301294,6.33888 L 8.0557241,6.2355309 c 0,0 -0.234147,-0.042926 -0.3431573,-0.020623 -0.1090105,0.022303 -0.2154088,0.070828 -0.2896465,0.1448231 -0.087548,0.087262 -0.1625043,0.2229966 -0.18557,0.3618126 -0.025658,0.1544159 0.020809,0.3022858 0.061366,0.4320149 0.021871,0.069958 0.048219,0.1066482 0.085421,0.1747699 L 7.18924,7.2576355 7.2393145,7.3985311 c 0,0 0.015596,0.047966 0.039274,0.1040763 0.023678,0.056107 0.052664,0.1200259 0.088857,0.1688787 0.044814,0.060486 0.1163699,0.1198824 0.1816427,0.1762421 l -0.2150257,-0.02602 0.1222407,0.1394229 c 0,0 0.148569,0.1680284 0.265591,0.2724638 C 7.6774914,8.2149174 7.615066,8.1970669 7.5844349,8.1795964 7.4519306,8.1040076 7.3634776,8.0248508 7.2672967,7.9238259 7.2180146,7.8720613 7.1866678,7.8150746 7.1298374,7.732855 L 7.3227714,7.8069835 7.0444163,7.1034859 7.205931,7.1761429 7.1745116,7.0386836 c 0,0 -0.01507,-0.065356 -0.027983,-0.1467869 C 7.133616,6.8104656 7.1236923,6.709067 7.1298379,6.6582163 7.1406375,6.5688555 7.1792236,6.4795182 7.228514,6.39508 7.2741644,6.3168769 7.3329924,6.2447393 7.4008291,6.1928184 7.4653123,6.143465 7.5510765,6.1108505 7.6418738,6.0794144 7.7469016,6.0430522 7.8341042,5.9994083 7.892737,6.0146121 c 0.033484,0.00868 0.054862,0.03092 0.08493,0.076094 0.030069,0.045173 0.063103,0.1078584 0.1281317,0.1556236 0.043743,0.03213 0.1049571,0.061853 0.159551,0.087385 0.012303,0.00576 0.011576,0.00633 0.022583,0.011292 -0.020216,0.025706 -0.032618,0.026653 -0.046638,0.066766 -0.018305,0.05237 -0.019956,0.1114857 -0.022091,0.1669149 -0.00214,0.05543 -0.00197,0.1021127 -0.00197,0.1021127 l 0.00392,0.205698 0.1242043,-0.1629874 c 0,0 0.022658,-0.028649 0.052038,-0.061366 0.029381,-0.032717 0.069091,-0.069084 0.08493,-0.078058 0.04584,-0.025972 0.1037012,-0.039507 0.1580782,-0.038783 0.00307,4.09e-5 0.020701,0.00444 0.033383,0.00736 -0.052949,0.046227 -0.1161332,0.074433 -0.1561145,0.2223894 l -0.036812,0.1448262 0.1354955,-0.059402 c 0,0 0.058767,-0.025791 0.1296045,-0.050075 0.070838,-0.024285 0.1596713,-0.042954 0.1836064,-0.040746 0.079376,0.00732 0.1530424,0.036354 0.232208,0.085421 0.042227,0.026172 0.096191,0.060928 0.1369684,0.094748 0.036901,0.030606 0.053851,0.057859 0.057929,0.066766 -0.00252,0.0026 -0.00403,0.00354 -0.00933,0.00736 -0.017611,0.012697 -0.047567,0.028127 -0.072657,0.035347 l -0.205698,0.057438 0.2002979,0.076094 c 0.067712,0.025848 0.227864,0.082213 0.3897953,0.044184 C 9.7409687,7.2177825 9.8298039,7.1820285 9.894724,7.1108464 9.962411,7.0611404 9.936305,6.9183419 9.936305,6.9183419 l -0.073492,0.0035 c 0,0 -0.024824,-5.188e-4 -0.05547,-0.00392 C 9.776694,6.9145219 9.737962,6.9068909 9.729287,6.9031939 9.6841453,6.883951 9.6397081,6.8442986 9.5957593,6.799605 9.537948,6.7408142 9.4234442,6.5619967 9.4234442,6.5619967 l -0.00392,-0.00589 -0.1428596,-0.1556236 c 0.026436,0.00259 0.043327,0.00232 0.061366,0.0054 0.09339,0.015938 0.1814297,0.031838 0.2557725,0.065294 0.051725,0.023277 0.1378404,0.079666 0.2061889,0.1296045 0.068349,0.049939 0.1207661,0.092785 0.1207661,0.092785 l 0.012768,0.011291 -0.062843,0.1448232 0.2704989,-0.00786 0.01866,-0.014728 c 0,0 0.0392,-0.030841 0.08149,-0.072166 0.04229,-0.041325 0.09004,-0.087781 0.111439,-0.1561144 0.02537,-0.08098 0.0047,-0.1592851 -0.02013,-0.2204259 -0.03261,-0.080531 -0.09061,-0.1417721 -0.146788,-0.1914612 -0.05496,-0.048617 -0.134207,-0.09448 -0.2022595,-0.1315681 -0.054682,-0.029802 -0.083676,-0.042099 -0.100148,-0.050075 L 9.7445098,5.723004 9.6738165,6.0165778 C 9.5972857,5.9773863 9.5372216,5.9521665 9.4882464,5.9144652 9.4320778,5.8712268 9.3214039,5.7401758 9.3100402,5.7269314 9.3066754,5.7135737 9.3017262,5.6931517 9.2879485,5.6528016 9.2704099,5.601437 9.2488035,5.5424454 9.2059639,5.4952143 9.1203379,5.4008168 9.001669,5.3634091 8.9055171,5.3297722 8.8050319,5.2946195 8.6710002,5.2830182 8.6364896,5.2796977 L 8.421464,4.9885786 C 8.4209911,4.9638931 8.4179227,4.8055596 8.3915175,4.6969685 8.353668,4.5413226 8.2300027,4.2924453 8.2300028,4.2924453 L 8.1617643,4.1481131 8.1003981,4.2963727 c 0,0 -0.093976,0.2260729 -0.1168404,0.385868 -0.00548,0.038278 2.106e-4,0.04867 0,0.088857 -0.040817,-0.051969 -0.056534,-0.074213 -0.096712,-0.12224 C 7.8063932,4.5526917 7.631073,4.2536622 7.631073,4.2536622 Z" /><path
     id="path6-3-3-4"
     style="display:inline;fill:url(#linearGradient103);stroke:none;stroke-width:0.142518;stroke-dasharray:none;stroke-opacity:1"
     d="m 7.9402973,4.0974796 c 0,0 -0.093436,0.2292683 -0.1134416,0.369079 -0.015965,0.1115725 0.00209,0.2834856 0.00209,0.2834856 0,0 -0.1316776,-0.1723433 -0.2228978,-0.2813839 C 7.5134947,4.3580297 7.3421995,4.0640416 7.3421995,4.0640416 c 0,0 -0.083747,0.2832027 -0.059909,0.4077696 0.019608,0.1024627 0.064151,0.1995948 0.1124238,0.2920763 0.116805,0.2237764 0.424279,0.6272646 0.424279,0.6272646 0,0 -0.4055709,-0.3569229 -0.6547143,-0.4423382 -0.171,-0.058625 -0.4033109,-0.048562 -0.5952903,0.00162 -0.1643199,0.042955 -0.4450188,0.2481415 -0.4450188,0.2481415 l 0.5890279,-4.86e-4 c 0,0 -0.302734,0.078651 -0.44456,0.1427517 C 6.1690407,5.3857682 6.0667985,5.4337233 5.9874821,5.5085972 5.8697164,5.6197667 5.7148074,5.9107109 5.7148074,5.9107109 L 6.3283997,5.6483636 c 0,0 -0.3617538,0.2915664 -0.491502,0.4737774 C 5.7377083,6.2614359 5.6302058,6.5896303 5.6302058,6.5896303 L 6.08786,6.2963639 5.9178343,6.5234247 c 0,0 -0.1296294,0.28008 -0.1359537,0.4304015 C 5.7732261,7.159589 5.9178343,7.5565169 5.9178343,7.5565169 5.9131793,7.2285857 6.0013716,6.959259 6.1781414,6.700018 l -0.054175,0.3066279 c 0,0 -0.030344,0.34805 0.026367,0.5077622 0.06325,0.178126 0.3343202,0.4580339 0.3343202,0.4580339 L 6.3965597,7.497006 c 0,0 0.2390698,0.4522397 0.4373443,0.6006532 0.2272418,0.1700964 0.5157183,0.332886 0.8222634,0.424903 0.3065452,0.092017 0.7263757,0.1160505 0.9891756,0.1055246 0.2627998,-0.010526 0.4388797,-0.049401 0.5731778,-0.10806 0.1342981,-0.05866 0.2379204,-0.1761387 0.2379204,-0.1761387 0,0 -0.3119371,0.042281 -0.4626044,0.00931 C 8.7398196,8.2976111 8.5086983,8.1565352 8.2917498,8.0131889 8.1101133,7.8931746 7.9324694,7.7563828 7.7993506,7.5841195 7.6293493,7.3641282 7.4979604,7.1064237 7.4277191,6.8374205 7.3990337,6.7275637 7.3871274,6.6082054 7.4110276,6.4972093 7.4306852,6.4059165 7.5126226,6.1822128 7.6874741,6.04588 c 0,0 -0.081412,0.00244 -0.1954438,0.012931 -0.090878,0.00836 -0.1793524,0.059779 -0.2439894,0.1242049 -0.074125,0.073882 -0.1459378,0.2044138 -0.1658311,0.3241372 -0.022081,0.1328902 0.01763,0.271403 0.057827,0.3999785 0.035681,0.1141336 0.1600427,0.3210658 0.1600427,0.3210658 L 7.0798989,7.1492152 c 0,0 0.06343,0.1786809 0.1190488,0.2537528 0.094218,0.1271715 0.3524852,0.3181199 0.3524852,0.3181199 L 7.283691,7.688687 c 0,0 0.1820823,0.2097835 0.2903243,0.2955374 0.1425775,0.1129557 0.466446,0.2832208 0.466446,0.2832208 0,0 -0.5043881,-0.1312955 -0.716702,-0.2524159 C 7.1842421,7.9354378 7.0887619,7.8495423 6.990304,7.7461249 6.879187,7.6294109 6.7056711,7.3553481 6.7056711,7.3553481 L 6.9705384,7.4567577 6.686912,6.7421811 6.8788642,6.8276022 c 0,0 -0.061385,-0.2688355 -0.045165,-0.4030498 0.012467,-0.103156 0.055129,-0.202856 0.1075125,-0.2925924 0.049162,-0.084218 0.1120598,-0.1636112 0.1894974,-0.2228805 0.07653,-0.058574 0.1704657,-0.091714 0.261535,-0.1232438 0.094556,-0.032737 0.1956806,-0.092448 0.2925406,-0.067333 0.1173743,0.030434 0.138966,0.1733448 0.236692,0.2451264 0.066173,0.048606 0.2455948,0.1236884 0.2455948,0.1236884 0,0 -0.063085,0.059002 -0.08522,0.1223315 -0.02169,0.062054 -0.019059,0.2441611 -0.019059,0.2441611 0,0 0.093118,-0.1214195 0.1579383,-0.1581455 0.058129,-0.032935 0.127647,-0.04949 0.1944523,-0.0486 0.048684,6.49e-4 0.1407094,0.039182 0.1407094,0.039182 0,0 -0.1442542,0.095019 -0.1947778,0.2819895 0,0 0.2431833,-0.1062563 0.3484121,-0.096555 0.093416,0.00862 0.1790489,0.044477 0.2641181,0.097203 0.08507,0.052726 0.2213658,0.1389948 0.2319165,0.2191316 0.00658,0.050018 -0.073534,0.094282 -0.1376585,0.1127347 0.061897,0.023627 0.2149057,0.072743 0.3490481,0.04124 0.072973,-0.017138 0.1483136,-0.049675 0.1988255,-0.1050576 0.026991,-0.029594 0.037399,-0.087448 0.037399,-0.087448 0,0 -0.121962,0.012707 -0.1778045,-0.0073 C 9.4137807,6.720119 9.3646387,6.6705195 9.3187672,6.6238709 9.2463392,6.5502155 9.136142,6.3734984 9.136142,6.3734984 L 8.8754601,6.0872891 c 0,0 0.1661335,0.00813 0.2479177,0.022091 0.09288,0.015851 0.1880143,0.031044 0.2739373,0.069711 0.1259078,0.056661 0.3426663,0.2326996 0.3426663,0.2326996 l 0.068733,-0.070203 -6.26e-4,0.086196 -0.0534,0.1215076 0.1355163,-0.00446 c 0,0 0.1437213,-0.1120157 0.1693703,-0.1939159 0.01722,-0.054995 0.0025,-0.1184088 -0.01914,-0.1718246 C 10.014336,6.1146555 9.964869,6.0602081 9.91279,6.0141455 9.822825,5.9345621 9.6030176,5.8300478 9.6030176,5.8300478 L 9.5411641,5.7058396 9.5117084,5.8300435 9.5608006,5.934611 c 0,0 -0.2391121,-0.1107638 -0.342666,-0.1904798 -0.075751,-0.058313 -0.1988255,-0.2066801 -0.1988255,-0.2066801 0,0 -0.038546,-0.1618403 -0.092158,-0.2209473 C 8.8583625,5.2406644 8.7531486,5.2050518 8.6565027,5.1712422 8.564496,5.1390555 8.3688286,5.1187579 8.3688286,5.1187579 L 8.1253449,4.7871216 c 0,0 -0.00553,-0.2018579 -0.029209,-0.2992408 C 8.0630275,4.3517301 7.9402973,4.0974796 7.9402973,4.0974796 Z" /><path
     id="path6-3-3-4-9"
     style="display:inline;fill:url(#linearGradient119);fill-opacity:1;stroke:none;stroke-width:0.142518;stroke-dasharray:none;stroke-opacity:1"
     d="M 8.9938278,8.3532044 C 8.7398196,8.2976199 8.5086979,8.1565411 8.2917493,8.0131946 8.1101131,7.8931802 7.9324688,7.7563887 7.79935,7.5841252 7.6293494,7.3641337 7.4979606,7.1064291 7.4277186,6.8374262 7.3990381,6.7275691 7.3871251,6.6082111 7.4110271,6.497215 7.4306826,6.40592 7.512622,6.1822188 7.6874742,6.0458862 c 0,0 -0.081415,0.00247 -0.1954444,0.01293 -0.090877,0.00836 -0.1793524,0.059774 -0.2439895,0.1242049 -0.074129,0.073881 -0.1459371,0.2044134 -0.165831,0.3241371 -0.022078,0.1328898 0.017632,0.2714027 0.057827,0.3999785 0.035682,0.114133 0.1600427,0.3210658 0.1600427,0.3210658 L 7.0798989,7.149219 c 0,0 0.063432,0.1786808 0.1190483,0.2537526 0.094221,0.1271718 0.3524851,0.3181199 0.3524851,0.3181199 L 7.283691,7.688687 c 0,0 0.1820817,0.2097837 0.2903238,0.2955374 C 7.7165927,8.0971803 8.040461,8.267445 8.040461,8.267445 8.6482753,8.4280979 9.0993824,8.3763057 8.9938278,8.3532044 Z" /></svg>
